<svg width="40" height="40" viewBox="0 0 40 40" fill="none" xmlns="http://www.w3.org/2000/svg">
<path d="M20 3.40002C10.8334 3.40002 3.33337 10.8834 3.33337 20.1C3.33337 28.4334 9.43337 35.35 17.4 36.6V24.9334H13.1667V20.1H17.4V16.4167C17.4 12.2334 19.8834 9.93336 23.7 9.93336C25.5167 9.93336 27.4167 10.25 27.4167 10.25V14.3667H25.3167C23.25 14.3667 22.6 15.65 22.6 16.9667V20.1H27.2334L26.4834 24.9334H22.6V36.6C26.5274 35.9798 30.1037 33.9759 32.6833 30.9501C35.2628 27.9244 36.6756 24.0761 36.6667 20.1C36.6667 10.8834 29.1667 3.40002 20 3.40002Z" fill="#F7F7F7"/>
</svg>
