<svg width="100" height="100" viewBox="0 0 100 100" fill="none" xmlns="http://www.w3.org/2000/svg">
<path d="M39.5833 38.8542V61.1459C39.5833 62.8125 40.3125 64.0278 41.7708 64.7917C43.2292 65.5556 44.6528 65.4862 46.0417 64.5834L63.3333 53.5417C64.6528 52.7778 65.3125 51.5973 65.3125 50C65.3125 48.4028 64.6528 47.2223 63.3333 46.4584L46.0417 35.4167C44.6528 34.5139 43.2292 34.4445 41.7708 35.2084C40.3125 35.9723 39.5833 37.1875 39.5833 38.8542ZM50 91.6667C44.2361 91.6667 38.8195 90.5723 33.75 88.3834C28.6806 86.1973 24.2708 83.2292 20.5208 79.4792C16.7708 75.7292 13.8028 71.3195 11.6167 66.25C9.42779 61.1806 8.33334 55.7639 8.33334 50C8.33334 44.2362 9.42779 38.8195 11.6167 33.75C13.8028 28.6806 16.7708 24.2709 20.5208 20.5209C24.2708 16.7709 28.6806 13.8014 33.75 11.6125C38.8195 9.42643 44.2361 8.33337 50 8.33337C55.7639 8.33337 61.1806 9.42643 66.25 11.6125C71.3195 13.8014 75.7292 16.7709 79.4792 20.5209C83.2292 24.2709 86.1972 28.6806 88.3833 33.75C90.5722 38.8195 91.6667 44.2362 91.6667 50C91.6667 55.7639 90.5722 61.1806 88.3833 66.25C86.1972 71.3195 83.2292 75.7292 79.4792 79.4792C75.7292 83.2292 71.3195 86.1973 66.25 88.3834C61.1806 90.5723 55.7639 91.6667 50 91.6667ZM50 83.3334C59.2361 83.3334 67.1014 80.0875 73.5958 73.5959C80.0875 67.1014 83.3334 59.2362 83.3334 50C83.3334 40.7639 80.0875 32.8987 73.5958 26.4042C67.1014 19.9125 59.2361 16.6667 50 16.6667C40.7639 16.6667 32.9 19.9125 26.4083 26.4042C19.9139 32.8987 16.6667 40.7639 16.6667 50C16.6667 59.2362 19.9139 67.1014 26.4083 73.5959C32.9 80.0875 40.7639 83.3334 50 83.3334Z" fill="white" fill-opacity="0.6"/>
</svg>
